0
SECTION
2
HEADER
9
$INSUNITS
70
4
9
$ACADVER
1
AC1014
9
$HANDSEED
5
FFFF
0
ENDSEC
0
SECTION
2
TABLES
0
TABLE
2
VPORT
5
8
100
AcDbSymbolTable
0
ENDTAB
0
TABLE
2
LTYPE
5
5
100
AcDbSymbolTable
0
LTYPE
5
14
100
AcDbSymbolTableRecord
100
AcDbLinetypeTableRecord
2
BYBLOCK
70
0
0
LTYPE
5
15
100
AcDbSymbolTableRecord
100
AcDbLinetypeTableRecord
2
BYLAYER
70
0
0
ENDTAB
0
TABLE
2
LAYER
5
2
100
AcDbSymbolTable
70
2
0
LAYER
5
50
100
AcDbSymbolTableRecord
100
AcDbLayerTableRecord
2
0
70
0
6
CONTINUOUS
0
ENDTAB
0
TABLE
2
STYLE
5
3
100
AcDbSymbolTable
70
1
0
STYLE
5
11
100
AcDbSymbolTableRecord
100
AcDbTextStyleTableRecord
2
STANDARD
70
0
0
ENDTAB
0
TABLE
2
VIEW
5
6
100
AcDbSymbolTable
70
0
0
ENDTAB
0
TABLE
2
UCS
5
7
100
AcDbSymbolTable
70
0
0
ENDTAB
0
TABLE
2
APPID
5
9
100
AcDbSymbolTable
70
2
0
APPID
5
12
100
AcDbSymbolTableRecord
100
AcDbRegAppTableRecord
2
ACAD
70
0
0
ENDTAB
0
TABLE
2
DIMSTYLE
5
A
100
AcDbSymbolTable
70
1
0
ENDTAB
0
TABLE
2
BLOCK_RECORD
5
1
100
AcDbSymbolTable
70
1
0
BLOCK_RECORD
5
1F
100
AcDbSymbolTableRecord
100
AcDbBlockTableRecord
2
*MODEL_SPACE
0
BLOCK_RECORD
5
1B
100
AcDbSymbolTableRecord
100
AcDbBlockTableRecord
2
*PAPER_SPACE
0
ENDTAB
0
ENDSEC
0
SECTION
2
BLOCKS
0
BLOCK
5
20
100
AcDbEntity
100
AcDbBlockBegin
2
*MODEL_SPACE
0
ENDBLK
5
21
100
AcDbEntity
100
AcDbBlockEnd
0
BLOCK
5
1C
100
AcDbEntity
100
AcDbBlockBegin
2
*PAPER_SPACE
0
ENDBLK
5
1D
100
AcDbEntity
100
AcDbBlockEnd
0
ENDSEC
0
SECTION
2
ENTITIES
0
SPLINE
5
100
100
AcDbEntity
8
0
100
AcDbSpline
70
0
71
3
72
8
73
4
74
0
42
0.000000001
43
0.0000000001
44
0.0000000001
40
0
40
0
40
0
40
0
40
1
40
1
40
1
40
1
10
-96.377579752604149
20
0.97444888977155109
30
0
10
-96.377579752604149
20
0.097696849414660711
30
0
10
-95.66683179296075
20
-0.61305111022844905
30
0
10
-94.790079752604157
20
-0.61305111022844905
30
0
0
LINE
5
101
100
AcDbEntity
8
0
100
AcDbLine
10
-96.377579752604149
20
0.97444888977155109
30
0
11
-96.377579752604149
21
12.150448889771653
31
0
0
SPLINE
5
102
100
AcDbEntity
8
0
100
AcDbSpline
70
0
71
3
72
8
73
4
74
0
42
0.000000001
43
0.0000000001
44
0.0000000001
40
0
40
0
40
0
40
0
40
1
40
1
40
1
40
1
10
-113.84007975260417
20
0.97444888977155109
30
0
10
-113.84007975260417
20
1.8512009301271561
30
0
10
-114.55082771224792
20
2.5619488897715508
30
0
10
-115.42757975260416
20
2.5619488897715508
30
0
0
LINE
5
103
100
AcDbEntity
8
0
100
AcDbLine
10
-91.615079752604174
20
-0.61305111022844905
30
0
11
-94.790079752604157
21
-0.61305111022844905
31
0
0
LINE
5
104
100
AcDbEntity
8
0
100
AcDbLine
10
-113.84007975260417
20
18.182948889771136
30
0
11
-113.84007975260417
21
12.150448889771653
31
0
0
LINE
5
105
100
AcDbEntity
8
0
100
AcDbLine
10
-115.42757975260416
20
10.562948889771651
30
0
11
-118.60257975260416
21
10.562948889771651
31
0
0
LINE
5
106
100
AcDbEntity
8
0
100
AcDbLine
10
-94.790079752604157
20
13.737948889771651
30
0
11
-91.615079752604174
21
13.737948889771651
31
0
0
LINE
5
107
100
AcDbEntity
8
0
100
AcDbLine
10
-120.19007975260416
20
13.737948889771651
30
0
11
-117.01507975260415
21
13.737948889771651
31
0
0
SPLINE
5
108
100
AcDbEntity
8
0
100
AcDbSpline
70
0
71
3
72
8
73
4
74
0
42
0.000000001
43
0.0000000001
44
0.0000000001
40
0
40
0
40
0
40
0
40
1
40
1
40
1
40
1
10
-115.42757975260416
20
10.562948889771651
30
0
10
-114.55082771224792
20
10.562948889771651
30
0
10
-113.84007975260417
20
11.273696849414762
30
0
10
-113.84007975260417
20
12.150448889771653
30
0
0
SPLINE
5
109
100
AcDbEntity
8
0
100
AcDbSpline
70
0
71
3
72
11
73
7
74
0
42
0.000000001
43
0.0000000001
44
0.0000000001
40
0
40
0
40
0
40
0
40
1
40
1
40
1
40
2
40
2
40
2
40
2
10
-117.01507975260415
20
-5.0580511102292194
30
0
10
-117.01507975260415
20
-5.9348031505848269
30
0
10
-116.3043317929607
20
-6.6455511102292188
30
0
10
-115.42757975260416
20
-6.6455511102292188
30
0
10
-114.55082771224792
20
-6.6455511102292188
30
0
10
-113.84007975260417
20
-5.9348031505848269
30
0
10
-113.84007975260417
20
-5.0580511102292194
30
0
0
LINE
5
110
100
AcDbEntity
8
0
100
AcDbLine
10
-121.77757975260417
20
0.97444888977155109
30
0
11
-121.77757975260417
21
12.150448889771653
31
0
0
LINE
5
111
100
AcDbEntity
8
0
100
AcDbLine
10
-117.01507975260415
20
-5.0580511102292194
30
0
11
-117.01507975260415
21
-0.61305111022844916
31
0
0
LINE
5
112
100
AcDbEntity
8
0
100
AcDbLine
10
-117.01507975260415
20
13.737948889771651
30
0
11
-117.01507975260415
21
18.182948889771136
31
0
0
SPLINE
5
113
100
AcDbEntity
8
0
100
AcDbSpline
70
0
71
3
72
8
73
4
74
0
42
0.000000001
43
0.0000000001
44
0.0000000001
40
0
40
0
40
0
40
0
40
1
40
1
40
1
40
1
10
-120.19007975260416
20
13.737948889771651
30
0
10
-121.0668317929607
20
13.737948889771651
30
0
10
-121.77757975260417
20
13.027200930127258
30
0
10
-121.77757975260417
20
12.150448889771653
30
0
0
SPLINE
5
114
100
AcDbEntity
8
0
100
AcDbSpline
70
0
71
3
72
8
73
4
74
0
42
0.000000001
43
0.0000000001
44
0.0000000001
40
0
40
0
40
0
40
0
40
1
40
1
40
1
40
1
10
-121.77757975260417
20
0.97444888977155109
30
0
10
-121.77757975260417
20
0.097696849414660711
30
0
10
-121.0668317929607
20
-0.61305111022844905
30
0
10
-120.19007975260416
20
-0.61305111022844905
30
0
0
LINE
5
115
100
AcDbEntity
8
0
100
AcDbLine
10
-113.84007975260417
20
0.97444888977155109
30
0
11
-113.84007975260417
21
-5.0580511102292194
31
0
0
LINE
5
116
100
AcDbEntity
8
0
100
AcDbLine
10
-91.615079752604174
20
13.737948889771651
30
0
11
-91.615079752604174
21
18.182948889771136
31
0
0
LINE
5
117
100
AcDbEntity
8
0
100
AcDbLine
10
-91.615079752604174
20
-5.0580511102292194
30
0
11
-91.615079752604174
21
-0.61305111022844905
31
0
0
SPLINE
5
118
100
AcDbEntity
8
0
100
AcDbSpline
70
0
71
3
72
8
73
4
74
0
42
0.000000001
43
0.0000000001
44
0.0000000001
40
0
40
0
40
0
40
0
40
1
40
1
40
1
40
1
10
-217.02757975260414
20
10.562948889771651
30
0
10
-216.15082771224789
20
10.562948889771651
30
0
10
-215.44007975260413
20
11.273696849414762
30
0
10
-215.44007975260413
20
12.150448889771653
30
0
0
SPLINE
5
119
100
AcDbEntity
8
0
100
AcDbSpline
70
0
71
3
72
11
73
7
74
0
42
0.000000001
43
0.0000000001
44
0.0000000001
40
0
40
0
40
0
40
0
40
1
40
1
40
1
40
2
40
2
40
2
40
2
10
-215.44007975260413
20
18.182948889771136
30
0
10
-215.44007975260413
20
19.059700930128031
30
0
10
-216.15082771224789
20
19.770448889771139
30
0
10
-217.02757975260414
20
19.770448889771139
30
0
10
-217.90433179296073
20
19.770448889771139
30
0
10
-218.61507975260412
20
19.059700930128031
30
0
10
-218.61507975260412
20
18.182948889771136
30
0
0
LINE
5
120
100
AcDbEntity
8
0
100
AcDbLine
10
-218.61507975260412
20
13.737948889771651
30
0
11
-218.61507975260412
21
18.182948889771136
31
0
0
SPLINE
5
121
100
AcDbEntity
8
0
100
AcDbSpline
70
0
71
3
72
8
73
4
74
0
42
0.000000001
43
0.0000000001
44
0.0000000001
40
0
40
0
40
0
40
0
40
1
40
1
40
1
40
1
10
-147.17757975260415
20
0.97444888977155109
30
0
10
-147.17757975260415
20
0.097696849414660711
30
0
10
-146.4668317929607
20
-0.61305111022844905
30
0
10
-145.59007975260414
20
-0.61305111022844905
30
0
0
LINE
5
122
100
AcDbEntity
8
0
100
AcDbLine
10
-142.41507975260413
20
-0.61305111022844905
30
0
11
-145.59007975260414
21
-0.61305111022844905
31
0
0
LINE
5
123
100
AcDbEntity
8
0
100
AcDbLine
10
-145.59007975260414
20
13.737948889771651
30
0
11
-142.41507975260413
21
13.737948889771651
31
0
0
SPLINE
5
124
100
AcDbEntity
8
0
100
AcDbSpline
70
0
71
3
72
8
73
4
74
0
42
0.000000001
43
0.0000000001
44
0.0000000001
40
0
40
0
40
0
40
0
40
1
40
1
40
1
40
1
10
-164.64007975260415
20
0.97444888977155109
30
0
10
-164.64007975260415
20
1.8512009301271561
30
0
10
-165.35082771224791
20
2.5619488897715508
30
0
10
-166.22757975260413
20
2.5619488897715508
30
0
0
LINE
5
125
100
AcDbEntity
8
0
100
AcDbLine
10
-142.41507975260413
20
13.737948889771651
30
0
11
-142.41507975260413
21
18.182948889771136
31
0
0
LINE
5
126
100
AcDbEntity
8
0
100
AcDbLine
10
-169.40257975260414
20
2.5619488897715508
30
0
11
-166.22757975260413
21
2.5619488897715508
31
0
0
LINE
5
127
100
AcDbEntity
8
0
100
AcDbLine
10
-147.17757975260415
20
0.97444888977155109
30
0
11
-147.17757975260415
21
12.150448889771653
31
0
0
LINE
5
128
100
AcDbEntity
8
0
100
AcDbLine
10
-142.41507975260413
20
-5.0580511102292194
30
0
11
-142.41507975260413
21
-0.61305111022844905
31
0
0
LINE
5
129
100
AcDbEntity
8
0
100
AcDbLine
10
-169.40257975260414
20
10.562948889771651
30
0
11
-169.40257975260414
21
2.5619488897715508
31
0
0
LINE
5
130
100
AcDbEntity
8
0
100
AcDbLine
10
-40.814978152604411
20
-1.3750511102283982
30
0
11
-40.814978152604411
21
14.499948889771598
31
0
0
LINE
5
131
100
AcDbEntity
8
0
100
AcDbLine
10
289.38492024739594
20
14.499948889771598
30
0
11
289.38492024739594
21
-1.375051110228398
31
0
0
SPLINE
5
132
100
AcDbEntity
8
0
100
AcDbSpline
70
0
71
3
72
11
73
7
74
0
42
0.000000001
43
0.0000000001
44
0.0000000001
40
0
40
0
40
0
40
0
40
1
40
1
40
1
40
2
40
2
40
2
40
2
10
-40.814978152604411
20
14.499948889771598
30
0
10
-40.814978152604411
20
15.376700930127212
30
0
10
-41.525726112247838
20
16.087448889771601
30
0
10
-42.402478152604417
20
16.087448889771601
30
0
10
-43.279230192960682
20
16.087448889771601
30
0
10
-43.989978152604408
20
15.376700930127212
30
0
10
-43.989978152604408
20
14.499948889771598
30
0
0
LINE
5
133
100
AcDbEntity
8
0
100
AcDbLine
10
-43.989978152604408
20
14.499948889771598
30
0
11
-43.989978152604408
21
-1.375051110228398
31
0
0
LINE
5
134
100
AcDbEntity
8
0
100
AcDbLine
10
-247.19007975260413
20
13.737948889771651
30
0
11
-244.01507975260415
21
13.737948889771651
31
0
0
LINE
5
135
100
AcDbEntity
8
0
100
AcDbLine
10
-245.60257975260413
20
2.5619488897715508
30
0
11
-242.42757975260415
21
2.5619488897715508
31
0
0
LINE
5
136
100
AcDbEntity
8
0
100
AcDbLine
10
-258.9472766402161
20
-9.312551110228398
30
0
11
-258.9472766402161
21
22.437448889771598
31
0
0
SPLINE
5
137
100
AcDbEntity
8
0
100
AcDbSpline
70
0
71
3
72
8
73
4
74
0
42
0.000000001
43
0.0000000001
44
0.0000000001
40
1
40
1
40
1
40
1
40
2
40
2
40
2
40
2
10
-258.9472766402161
20
22.437448889771598
30
0
10
-258.9472766402161
20
24.190952970484098
30
0
10
-257.52578072092916
20
25.612448889771603
30
0
10
-255.77227664021615
20
25.612448889771603
30
0
0
LINE
5
138
100
AcDbEntity
8
0
100
AcDbLine
10
-255.77227664021615
20
25.612448889771603
30
0
11
445.90272335978392
21
25.612448889771603
31
0
0
LINE
5
139
100
AcDbEntity
8
0
100
AcDbLine
10
445.90272335978392
20
25.612448889771603
30
0
11
445.90272335978392
21
12.912448889771602
31
0
0
LINE
5
140
100
AcDbEntity
8
0
100
AcDbLine
10
445.90272335978392
20
12.912448889771602
30
0
11
456.9517233597839
21
12.912448889771602
31
0
0
LINE
5
141
100
AcDbEntity
8
0
100
AcDbLine
10
456.9517233597839
20
12.912448889771602
30
0
11
456.9517233597839
21
17.674948889771599
31
0
0
SPLINE
5
142
100
AcDbEntity
8
0
100
AcDbSpline
70
0
71
3
72
10
73
6
74
0
42
0.000000001
43
0.0000000001
44
0.0000000001
40
6
40
6
40
6
40
6
40
7
40
7
40
8
40
8
40
8
40
8
10
456.9517233597839
20
17.674948889771599
30
0
10
463.08898764227877
20
17.674948889771599
30
0
10
468.06422335978397
20
12.69971317226598
30
0
10
468.06422335978397
20
0.42518460727722296
30
0
10
463.08898764227877
20
-4.5500511102283987
30
0
10
456.9517233597839
20
-4.5500511102283987
30
0
0
LINE
5
143
100
AcDbEntity
8
0
100
AcDbLine
10
456.9517233597839
20
-4.5500511102283987
30
0
11
456.9517233597839
21
0.21244888977160203
31
0
0
LINE
5
144
100
AcDbEntity
8
0
100
AcDbLine
10
456.9517233597839
20
0.21244888977160203
30
0
11
445.90272335978392
21
0.21244888977160176
31
0
0
LINE
5
145
100
AcDbEntity
8
0
100
AcDbLine
10
445.90272335978392
20
0.21244888977160176
30
0
11
445.90272335978392
21
-12.487551110228399
31
0
0
LINE
5
146
100
AcDbEntity
8
0
100
AcDbLine
10
445.90272335978392
20
-12.487551110228399
30
0
11
-255.77227664021615
21
-12.487551110228399
31
0
0
SPLINE
5
147
100
AcDbEntity
8
0
100
AcDbSpline
70
0
71
3
72
8
73
4
74
0
42
0.000000001
43
0.0000000001
44
0.0000000001
40
12
40
12
40
12
40
12
40
13
40
13
40
13
40
13
10
-255.77227664021615
20
-12.487551110228399
30
0
10
-257.52578072092916
20
-12.487551110228399
30
0
10
-258.9472766402161
20
-11.066055190940894
30
0
10
-258.9472766402161
20
-9.312551110228398
30
0
0
LINE
5
148
100
AcDbEntity
8
0
100
AcDbLine
10
-244.01507975260415
20
-5.0580511102292194
30
0
11
-244.01507975260415
21
-0.61305111022844916
31
0
0
LINE
5
149
100
AcDbEntity
8
0
100
AcDbLine
10
-242.42757975260415
20
10.562948889771651
30
0
11
-245.60257975260413
21
10.562948889771651
31
0
0
LINE
5
150
100
AcDbEntity
8
0
100
AcDbLine
10
-240.84007975260414
20
0.97444888977155109
30
0
11
-240.84007975260414
21
-5.0580511102292194
31
0
0
SPLINE
5
151
100
AcDbEntity
8
0
100
AcDbSpline
70
0
71
3
72
11
73
7
74
0
42
0.000000001
43
0.0000000001
44
0.0000000001
40
0
40
0
40
0
40
0
40
1
40
1
40
1
40
2
40
2
40
2
40
2
10
-15.414978152604421
20
14.499948889771598
30
0
10
-15.414978152604421
20
15.376700930127212
30
0
10
-16.125726112247854
20
16.087448889771601
30
0
10
-17.002478152604422
20
16.087448889771601
30
0
10
-17.879230192960669
20
16.087448889771601
30
0
10
-18.58997815260442
20
15.376700930127212
30
0
10
-18.58997815260442
20
14.499948889771598
30
0
0
SPLINE
5
152
100
AcDbEntity
8
0
100
AcDbSpline
70
0
71
3
72
8
73
4
74
0
42
0.000000001
43
0.0000000001
44
0.0000000001
40
0
40
0
40
0
40
0
40
1
40
1
40
1
40
1
10
-247.19007975260413
20
13.737948889771651
30
0
10
-248.0668317929607
20
13.737948889771651
30
0
10
-248.77757975260414
20
13.027200930127258
30
0
10
-248.77757975260414
20
12.150448889771653
30
0
0
LINE
5
153
100
AcDbEntity
8
0
100
AcDbLine
10
-18.58997815260442
20
14.499948889771598
30
0
11
-18.58997815260442
21
-1.375051110228398
31
0
0
SPLINE
5
154
100
AcDbEntity
8
0
100
AcDbSpline
70
0
71
3
72
11
73
7
74
0
42
0.000000001
43
0.0000000001
44
0.0000000001
40
0
40
0
40
0
40
0
40
1
40
1
40
1
40
2
40
2
40
2
40
2
10
-240.84007975260414
20
18.182948889771136
30
0
10
-240.84007975260414
20
19.059700930128031
30
0
10
-241.55082771224789
20
19.770448889771139
30
0
10
-242.42757975260415
20
19.770448889771139
30
0
10
-243.30433179296068
20
19.770448889771139
30
0
10
-244.01507975260415
20
19.059700930128031
30
0
10
-244.01507975260415
20
18.182948889771136
30
0
0
SPLINE
5
155
100
AcDbEntity
8
0
100
AcDbSpline
70
0
71
3
72
11
73
7
74
0
42
0.000000001
43
0.0000000001
44
0.0000000001
40
0
40
0
40
0
40
0
40
1
40
1
40
1
40
2
40
2
40
2
40
2
10
263.98492024739591
20
-1.3750511102283982
30
0
10
263.98492024739591
20
-2.2518031505852885
30
0
10
264.69566820703966
20
-2.9625511102283983
30
0
10
265.57242024739588
20
-2.9625511102283983
30
0
10
266.44917228775222
20
-2.9625511102283983
30
0
10
267.15992024739592
20
-2.2518031505852885
30
0
10
267.15992024739592
20
-1.3750511102283982
30
0
0
LINE
5
156
100
AcDbEntity
8
0
100
AcDbLine
10
-240.84007975260414
20
18.182948889771136
30
0
11
-240.84007975260414
21
12.150448889771653
31
0
0
LINE
5
157
100
AcDbEntity
8
0
100
AcDbLine
10
-248.77757975260414
20
0.97444888977155109
30
0
11
-248.77757975260414
21
12.150448889771653
31
0
0
SPLINE
5
158
100
AcDbEntity
8
0
100
AcDbSpline
70
0
71
3
72
11
73
7
74
0
42
0.000000001
43
0.0000000001
44
0.0000000001
40
0
40
0
40
0
40
0
40
1
40
1
40
1
40
2
40
2
40
2
40
2
10
289.38492024739594
20
-1.3750511102283982
30
0
10
289.38492024739594
20
-2.2518031505852885
30
0
10
290.09566820703969
20
-2.9625511102283983
30
0
10
290.97242024739592
20
-2.9625511102283983
30
0
10
291.84917228775214
20
-2.9625511102283983
30
0
10
292.55992024739589
20
-2.2518031505852885
30
0
10
292.55992024739589
20
-1.3750511102283982
30
0
0
LINE
5
159
100
AcDbEntity
8
0
100
AcDbLine
10
-15.414978152604421
20
-1.3750511102283982
30
0
11
-15.414978152604421
21
14.499948889771598
31
0
0
LINE
5
160
100
AcDbEntity
8
0
100
AcDbLine
10
263.98492024739591
20
14.499948889771598
30
0
11
263.98492024739591
21
-1.3750511102283982
31
0
0
SPLINE
5
161
100
AcDbEntity
8
0
100
AcDbSpline
70
0
71
3
72
8
73
4
74
0
42
0.000000001
43
0.0000000001
44
0.0000000001
40
0
40
0
40
0
40
0
40
1
40
1
40
1
40
1
10
-248.77757975260414
20
0.97444888977155109
30
0
10
-248.77757975260414
20
0.097696849414660711
30
0
10
-248.0668317929607
20
-0.61305111022844905
30
0
10
-247.19007975260413
20
-0.61305111022844905
30
0
0
SPLINE
5
162
100
AcDbEntity
8
0
100
AcDbSpline
70
0
71
3
72
11
73
7
74
0
42
0.000000001
43
0.0000000001
44
0.0000000001
40
0
40
0
40
0
40
0
40
1
40
1
40
1
40
2
40
2
40
2
40
2
10
-18.58997815260442
20
-1.3750511102283982
30
0
10
-18.58997815260442
20
-2.2518031505852885
30
0
10
-17.879230192960669
20
-2.9625511102283983
30
0
10
-17.002478152604422
20
-2.9625511102283983
30
0
10
-16.125726112247854
20
-2.9625511102283983
30
0
10
-15.414978152604421
20
-2.2518031505852885
30
0
10
-15.414978152604421
20
-1.3750511102283982
30
0
0
SPLINE
5
163
100
AcDbEntity
8
0
100
AcDbSpline
70
0
71
3
72
11
73
7
74
0
42
0.000000001
43
0.0000000001
44
0.0000000001
40
0
40
0
40
0
40
0
40
1
40
1
40
1
40
2
40
2
40
2
40
2
10
-244.01507975260415
20
-5.0580511102292194
30
0
10
-244.01507975260415
20
-5.9348031505848269
30
0
10
-243.30433179296068
20
-6.6455511102292188
30
0
10
-242.42757975260415
20
-6.6455511102292188
30
0
10
-241.55082771224789
20
-6.6455511102292188
30
0
10
-240.84007975260414
20
-5.9348031505848269
30
0
10
-240.84007975260414
20
-5.0580511102292194
30
0
0
LINE
5
164
100
AcDbEntity
8
0
100
AcDbLine
10
-244.01507975260415
20
13.737948889771651
30
0
11
-244.01507975260415
21
18.182948889771136
31
0
0
LINE
5
165
100
AcDbEntity
8
0
100
AcDbLine
10
-193.21507975260414
20
-5.0580511102292194
30
0
11
-193.21507975260414
21
-0.61305111022844916
31
0
0
SPLINE
5
166
100
AcDbEntity
8
0
100
AcDbSpline
70
0
71
3
72
11
73
7
74
0
42
0.000000001
43
0.0000000001
44
0.0000000001
40
0
40
0
40
0
40
0
40
1
40
1
40
1
40
2
40
2
40
2
40
2
10
-43.989978152604408
20
-1.3750511102283982
30
0
10
-43.989978152604408
20
-2.2518031505852885
30
0
10
-43.279230192960682
20
-2.9625511102283983
30
0
10
-42.402478152604417
20
-2.9625511102283983
30
0
10
-41.525726112247838
20
-2.9625511102283983
30
0
10
-40.814978152604411
20
-2.2518031505852885
30
0
10
-40.814978152604411
20
-1.3750511102283982
30
0
0
SPLINE
5
167
100
AcDbEntity
8
0
100
AcDbSpline
70
0
71
3
72
8
73
4
74
0
42
0.000000001
43
0.0000000001
44
0.0000000001
40
0
40
0
40
0
40
0
40
1
40
1
40
1
40
1
10
-242.42757975260415
20
10.562948889771651
30
0
10
-241.55082771224789
20
10.562948889771651
30
0
10
-240.84007975260414
20
11.273696849414762
30
0
10
-240.84007975260414
20
12.150448889771653
30
0
0
LINE
5
168
100
AcDbEntity
8
0
100
AcDbLine
10
-245.60257975260413
20
10.562948889771651
30
0
11
-245.60257975260413
21
2.5619488897715508
31
0
0
SPLINE
5
169
100
AcDbEntity
8
0
100
AcDbSpline
70
0
71
3
72
8
73
4
74
0
42
0.000000001
43
0.0000000001
44
0.0000000001
40
0
40
0
40
0
40
0
40
1
40
1
40
1
40
1
10
-240.84007975260414
20
0.97444888977155109
30
0
10
-240.84007975260414
20
1.8512009301271561
30
0
10
-241.55082771224789
20
2.5619488897715508
30
0
10
-242.42757975260415
20
2.5619488897715508
30
0
0
LINE
5
170
100
AcDbEntity
8
0
100
AcDbLine
10
292.55992024739589
20
-1.3750511102283982
30
0
11
292.55992024739589
21
14.499948889771598
31
0
0
SPLINE
5
171
100
AcDbEntity
8
0
100
AcDbSpline
70
0
71
3
72
8
73
4
74
0
42
0.000000001
43
0.0000000001
44
0.0000000001
40
0
40
0
40
0
40
0
40
1
40
1
40
1
40
1
10
-221.79007975260416
20
13.737948889771651
30
0
10
-222.66683179296075
20
13.737948889771651
30
0
10
-223.37757975260413
20
13.027200930127258
30
0
10
-223.37757975260413
20
12.150448889771653
30
0
0
LINE
5
172
100
AcDbEntity
8
0
100
AcDbLine
10
-218.61507975260412
20
-5.0580511102292194
30
0
11
-218.61507975260412
21
-0.61305111022844916
31
0
0
LINE
5
173
100
AcDbEntity
8
0
100
AcDbLine
10
-218.61507975260412
20
-0.61305111022844916
30
0
11
-221.79007975260416
21
-0.61305111022844905
31
0
0
LINE
5
174
100
AcDbEntity
8
0
100
AcDbLine
10
-140.82757975260415
20
10.562948889771651
30
0
11
-144.00257975260413
21
10.562948889771651
31
0
0
LINE
5
175
100
AcDbEntity
8
0
100
AcDbLine
10
-144.00257975260413
20
10.562948889771651
30
0
11
-144.00257975260413
21
2.5619488897715503
31
0
0
SPLINE
5
176
100
AcDbEntity
8
0
100
AcDbSpline
70
0
71
3
72
8
73
4
74
0
42
0.000000001
43
0.0000000001
44
0.0000000001
40
0
40
0
40
0
40
0
40
1
40
1
40
1
40
1
10
-139.24007975260415
20
0.97444888977155109
30
0
10
-139.24007975260415
20
1.8512009301271561
30
0
10
-139.9508277122479
20
2.5619488897715508
30
0
10
-140.82757975260415
20
2.5619488897715508
30
0
0
SPLINE
5
177
100
AcDbEntity
8
0
100
AcDbSpline
70
0
71
3
72
11
73
7
74
0
42
0.000000001
43
0.0000000001
44
0.0000000001
40
0
40
0
40
0
40
0
40
1
40
1
40
1
40
2
40
2
40
2
40
2
10
-142.41507975260413
20
-5.0580511102292194
30
0
10
-142.41507975260413
20
-5.9348031505848269
30
0
10
-141.70433179296072
20
-6.6455511102292188
30
0
10
-140.82757975260415
20
-6.6455511102292188
30
0
10
-139.9508277122479
20
-6.6455511102292188
30
0
10
-139.24007975260415
20
-5.9348031505848269
30
0
10
-139.24007975260415
20
-5.0580511102292194
30
0
0
LINE
5
178
100
AcDbEntity
8
0
100
AcDbLine
10
-139.24007975260415
20
0.97444888977155109
30
0
11
-139.24007975260415
21
-5.0580511102292194
31
0
0
SPLINE
5
179
100
AcDbEntity
8
0
100
AcDbSpline
70
0
71
3
72
11
73
7
74
0
42
0.000000001
43
0.0000000001
44
0.0000000001
40
0
40
0
40
0
40
0
40
1
40
1
40
1
40
2
40
2
40
2
40
2
10
-139.24007975260415
20
18.182948889771136
30
0
10
-139.24007975260415
20
19.059700930128031
30
0
10
-139.9508277122479
20
19.770448889771139
30
0
10
-140.82757975260415
20
19.770448889771139
30
0
10
-141.70433179296072
20
19.770448889771139
30
0
10
-142.41507975260413
20
19.059700930128031
30
0
10
-142.41507975260413
20
18.182948889771136
30
0
0
SPLINE
5
180
100
AcDbEntity
8
0
100
AcDbSpline
70
0
71
3
72
8
73
4
74
0
42
0.000000001
43
0.0000000001
44
0.0000000001
40
0
40
0
40
0
40
0
40
1
40
1
40
1
40
1
10
-145.59007975260414
20
13.737948889771651
30
0
10
-146.4668317929607
20
13.737948889771651
30
0
10
-147.17757975260415
20
13.027200930127258
30
0
10
-147.17757975260415
20
12.150448889771653
30
0
0
SPLINE
5
181
100
AcDbEntity
8
0
100
AcDbSpline
70
0
71
3
72
8
73
4
74
0
42
0.000000001
43
0.0000000001
44
0.0000000001
40
0
40
0
40
0
40
0
40
1
40
1
40
1
40
1
10
-140.82757975260415
20
10.562948889771651
30
0
10
-139.9508277122479
20
10.562948889771651
30
0
10
-139.24007975260415
20
11.273696849414762
30
0
10
-139.24007975260415
20
12.150448889771653
30
0
0
LINE
5
182
100
AcDbEntity
8
0
100
AcDbLine
10
-144.00257975260413
20
2.5619488897715503
30
0
11
-140.82757975260415
21
2.5619488897715508
31
0
0
LINE
5
183
100
AcDbEntity
8
0
100
AcDbLine
10
-139.24007975260415
20
18.182948889771136
30
0
11
-139.24007975260415
21
12.150448889771653
31
0
0
LINE
5
184
100
AcDbEntity
8
0
100
AcDbLine
10
267.15992024739592
20
-1.3750511102283982
30
0
11
267.15992024739592
21
14.499948889771598
31
0
0
SPLINE
5
185
100
AcDbEntity
8
0
100
AcDbSpline
70
0
71
3
72
11
73
7
74
0
42
0.000000001
43
0.0000000001
44
0.0000000001
40
0
40
0
40
0
40
0
40
1
40
1
40
1
40
2
40
2
40
2
40
2
10
267.15992024739592
20
14.499948889771598
30
0
10
267.15992024739592
20
15.376700930127212
30
0
10
266.44917228775222
20
16.087448889771601
30
0
10
265.57242024739588
20
16.087448889771601
30
0
10
264.69566820703966
20
16.087448889771601
30
0
10
263.98492024739591
20
15.376700930127212
30
0
10
263.98492024739591
20
14.499948889771598
30
0
0
LINE
5
186
100
AcDbEntity
8
0
100
AcDbLine
10
-170.99007975260412
20
13.737948889771651
30
0
11
-167.81507975260413
21
13.737948889771651
31
0
0
LINE
5
187
100
AcDbEntity
8
0
100
AcDbLine
10
-117.01507975260415
20
-0.61305111022844916
30
0
11
-120.19007975260416
21
-0.61305111022844905
31
0
0
SPLINE
5
188
100
AcDbEntity
8
0
100
AcDbSpline
70
0
71
3
72
8
73
4
74
0
42
0.000000001
43
0.0000000001
44
0.0000000001
40
0
40
0
40
0
40
0
40
1
40
1
40
1
40
1
10
-197.97757975260413
20
0.97444888977155109
30
0
10
-197.97757975260413
20
0.097696849414660711
30
0
10
-197.26683179296072
20
-0.61305111022844905
30
0
10
-196.39007975260412
20
-0.61305111022844905
30
0
0
LINE
5
189
100
AcDbEntity
8
0
100
AcDbLine
10
-118.60257975260416
20
10.562948889771651
30
0
11
-118.60257975260416
21
2.5619488897715503
31
0
0
SPLINE
5
190
100
AcDbEntity
8
0
100
AcDbSpline
70
0
71
3
72
8
73
4
74
0
42
0.000000001
43
0.0000000001
44
0.0000000001
40
0
40
0
40
0
40
0
40
1
40
1
40
1
40
1
10
-88.440079752604163
20
0.97444888977155109
30
0
10
-88.440079752604163
20
1.8512009301271561
30
0
10
-89.150827712247903
20
2.5619488897715508
30
0
10
-90.027579752604154
20
2.5619488897715508
30
0
0
SPLINE
5
191
100
AcDbEntity
8
0
100
AcDbSpline
70
0
71
3
72
8
73
4
74
0
42
0.000000001
43
0.0000000001
44
0.0000000001
40
0
40
0
40
0
40
0
40
1
40
1
40
1
40
1
10
-196.39007975260412
20
13.737948889771651
30
0
10
-197.26683179296072
20
13.737948889771651
30
0
10
-197.97757975260413
20
13.027200930127258
30
0
10
-197.97757975260413
20
12.150448889771653
30
0
0
SPLINE
5
192
100
AcDbEntity
8
0
100
AcDbSpline
70
0
71
3
72
8
73
4
74
0
42
0.000000001
43
0.0000000001
44
0.0000000001
40
0
40
0
40
0
40
0
40
1
40
1
40
1
40
1
10
-170.99007975260412
20
13.737948889771651
30
0
10
-171.86683179296068
20
13.737948889771651
30
0
10
-172.57757975260415
20
13.027200930127258
30
0
10
-172.57757975260415
20
12.150448889771653
30
0
0
LINE
5
193
100
AcDbEntity
8
0
100
AcDbLine
10
-193.21507975260414
20
13.737948889771651
30
0
11
-193.21507975260414
21
18.182948889771136
31
0
0
LINE
5
194
100
AcDbEntity
8
0
100
AcDbLine
10
-172.57757975260415
20
0.97444888977155109
30
0
11
-172.57757975260415
21
12.150448889771653
31
0
0
SPLINE
5
195
100
AcDbEntity
8
0
100
AcDbSpline
70
0
71
3
72
11
73
7
74
0
42
0.000000001
43
0.0000000001
44
0.0000000001
40
0
40
0
40
0
40
0
40
1
40
1
40
1
40
2
40
2
40
2
40
2
10
-113.84007975260417
20
18.182948889771136
30
0
10
-113.84007975260417
20
19.059700930128031
30
0
10
-114.55082771224792
20
19.770448889771139
30
0
10
-115.42757975260416
20
19.770448889771139
30
0
10
-116.3043317929607
20
19.770448889771139
30
0
10
-117.01507975260415
20
19.059700930128031
30
0
10
-117.01507975260415
20
18.182948889771136
30
0
0
LINE
5
196
100
AcDbEntity
8
0
100
AcDbLine
10
-197.97757975260413
20
0.97444888977155109
30
0
11
-197.97757975260413
21
12.150448889771653
31
0
0
LINE
5
197
100
AcDbEntity
8
0
100
AcDbLine
10
-118.60257975260416
20
2.5619488897715503
30
0
11
-115.42757975260416
21
2.5619488897715508
31
0
0
SPLINE
5
198
100
AcDbEntity
8
0
100
AcDbSpline
70
0
71
3
72
8
73
4
74
0
42
0.000000001
43
0.0000000001
44
0.0000000001
40
0
40
0
40
0
40
0
40
1
40
1
40
1
40
1
10
-172.57757975260415
20
0.97444888977155109
30
0
10
-172.57757975260415
20
0.097696849414660711
30
0
10
-171.86683179296068
20
-0.61305111022844905
30
0
10
-170.99007975260412
20
-0.61305111022844905
30
0
0
LINE
5
199
100
AcDbEntity
8
0
100
AcDbLine
10
-93.202579752604166
20
2.5619488897715508
30
0
11
-90.027579752604154
21
2.5619488897715508
31
0
0
LINE
5
200
100
AcDbEntity
8
0
100
AcDbLine
10
-221.79007975260416
20
13.737948889771651
30
0
11
-218.61507975260412
21
13.737948889771651
31
0
0
SPLINE
5
201
100
AcDbEntity
8
0
100
AcDbSpline
70
0
71
3
72
8
73
4
74
0
42
0.000000001
43
0.0000000001
44
0.0000000001
40
0
40
0
40
0
40
0
40
1
40
1
40
1
40
1
10
-223.37757975260413
20
0.97444888977155109
30
0
10
-223.37757975260413
20
0.097696849414660711
30
0
10
-222.66683179296075
20
-0.61305111022844905
30
0
10
-221.79007975260416
20
-0.61305111022844905
30
0
0
LINE
5
202
100
AcDbEntity
8
0
100
AcDbLine
10
-223.37757975260413
20
0.97444888977155109
30
0
11
-223.37757975260413
21
12.150448889771653
31
0
0
SPLINE
5
203
100
AcDbEntity
8
0
100
AcDbSpline
70
0
71
3
72
11
73
7
74
0
42
0.000000001
43
0.0000000001
44
0.0000000001
40
0
40
0
40
0
40
0
40
1
40
1
40
1
40
2
40
2
40
2
40
2
10
-167.81507975260413
20
-5.0580511102292194
30
0
10
-167.81507975260413
20
-5.9348031505848269
30
0
10
-167.10433179296072
20
-6.6455511102292188
30
0
10
-166.22757975260413
20
-6.6455511102292188
30
0
10
-165.35082771224791
20
-6.6455511102292188
30
0
10
-164.64007975260415
20
-5.9348031505848269
30
0
10
-164.64007975260415
20
-5.0580511102292194
30
0
0
LINE
5
204
100
AcDbEntity
8
0
100
AcDbLine
10
-190.04007975260413
20
0.97444888977155109
30
0
11
-190.04007975260413
21
-5.0580511102292194
31
0
0
LINE
5
205
100
AcDbEntity
8
0
100
AcDbLine
10
-164.64007975260415
20
0.97444888977155109
30
0
11
-164.64007975260415
21
-5.0580511102292194
31
0
0
SPLINE
5
206
100
AcDbEntity
8
0
100
AcDbSpline
70
0
71
3
72
8
73
4
74
0
42
0.000000001
43
0.0000000001
44
0.0000000001
40
0
40
0
40
0
40
0
40
1
40
1
40
1
40
1
10
-190.04007975260413
20
0.97444888977155109
30
0
10
-190.04007975260413
20
1.8512009301271561
30
0
10
-190.75082771224788
20
2.5619488897715508
30
0
10
-191.62757975260416
20
2.5619488897715508
30
0
0
LINE
5
207
100
AcDbEntity
8
0
100
AcDbLine
10
-167.81507975260413
20
-5.0580511102292194
30
0
11
-167.81507975260413
21
-0.61305111022844916
31
0
0
SPLINE
5
208
100
AcDbEntity
8
0
100
AcDbSpline
70
0
71
3
72
11
73
7
74
0
42
0.000000001
43
0.0000000001
44
0.0000000001
40
0
40
0
40
0
40
0
40
1
40
1
40
1
40
2
40
2
40
2
40
2
10
-91.615079752604174
20
-5.0580511102292194
30
0
10
-91.615079752604174
20
-5.9348031505848269
30
0
10
-90.904331792960733
20
-6.6455511102292188
30
0
10
-90.027579752604154
20
-6.6455511102292188
30
0
10
-89.150827712247903
20
-6.6455511102292188
30
0
10
-88.440079752604163
20
-5.9348031505848269
30
0
10
-88.440079752604163
20
-5.0580511102292194
30
0
0
SPLINE
5
209
100
AcDbEntity
8
0
100
AcDbSpline
70
0
71
3
72
11
73
7
74
0
42
0.000000001
43
0.0000000001
44
0.0000000001
40
0
40
0
40
0
40
0
40
1
40
1
40
1
40
2
40
2
40
2
40
2
10
-88.440079752604163
20
18.182948889771136
30
0
10
-88.440079752604163
20
19.059700930128031
30
0
10
-89.150827712247903
20
19.770448889771139
30
0
10
-90.027579752604154
20
19.770448889771139
30
0
10
-90.904331792960733
20
19.770448889771139
30
0
10
-91.615079752604174
20
19.059700930128031
30
0
10
-91.615079752604174
20
18.182948889771136
30
0
0
SPLINE
5
210
100
AcDbEntity
8
0
100
AcDbSpline
70
0
71
3
72
8
73
4
74
0
42
0.000000001
43
0.0000000001
44
0.0000000001
40
0
40
0
40
0
40
0
40
1
40
1
40
1
40
1
10
-90.027579752604154
20
10.562948889771651
30
0
10
-89.150827712247903
20
10.562948889771651
30
0
10
-88.440079752604163
20
11.273696849414762
30
0
10
-88.440079752604163
20
12.150448889771653
30
0
0
SPLINE
5
211
100
AcDbEntity
8
0
100
AcDbSpline
70
0
71
3
72
8
73
4
74
0
42
0.000000001
43
0.0000000001
44
0.0000000001
40
0
40
0
40
0
40
0
40
1
40
1
40
1
40
1
10
-94.790079752604157
20
13.737948889771651
30
0
10
-95.66683179296075
20
13.737948889771651
30
0
10
-96.377579752604149
20
13.027200930127258
30
0
10
-96.377579752604149
20
12.150448889771653
30
0
0
LINE
5
212
100
AcDbEntity
8
0
100
AcDbLine
10
-88.440079752604163
20
0.97444888977155109
30
0
11
-88.440079752604163
21
-5.0580511102292194
31
0
0
LINE
5
213
100
AcDbEntity
8
0
100
AcDbLine
10
-93.202579752604166
20
10.562948889771651
30
0
11
-93.202579752604166
21
2.5619488897715508
31
0
0
LINE
5
214
100
AcDbEntity
8
0
100
AcDbLine
10
-90.027579752604154
20
10.562948889771651
30
0
11
-93.202579752604166
21
10.562948889771651
31
0
0
LINE
5
215
100
AcDbEntity
8
0
100
AcDbLine
10
-88.440079752604163
20
18.182948889771136
30
0
11
-88.440079752604163
21
12.150448889771653
31
0
0
SPLINE
5
216
100
AcDbEntity
8
0
100
AcDbSpline
70
0
71
3
72
8
73
4
74
0
42
0.000000001
43
0.0000000001
44
0.0000000001
40
0
40
0
40
0
40
0
40
1
40
1
40
1
40
1
10
-191.62757975260416
20
10.562948889771651
30
0
10
-190.75082771224788
20
10.562948889771651
30
0
10
-190.04007975260413
20
11.273696849414762
30
0
10
-190.04007975260413
20
12.150448889771653
30
0
0
LINE
5
217
100
AcDbEntity
8
0
100
AcDbLine
10
-191.62757975260416
20
10.562948889771651
30
0
11
-194.80257975260415
21
10.562948889771651
31
0
0
SPLINE
5
218
100
AcDbEntity
8
0
100
AcDbSpline
70
0
71
3
72
11
73
7
74
0
42
0.000000001
43
0.0000000001
44
0.0000000001
40
0
40
0
40
0
40
0
40
1
40
1
40
1
40
2
40
2
40
2
40
2
10
-193.21507975260414
20
-5.0580511102292194
30
0
10
-193.21507975260414
20
-5.9348031505848269
30
0
10
-192.5043317929607
20
-6.6455511102292188
30
0
10
-191.62757975260416
20
-6.6455511102292188
30
0
10
-190.75082771224788
20
-6.6455511102292188
30
0
10
-190.04007975260413
20
-5.9348031505848269
30
0
10
-190.04007975260413
20
-5.0580511102292194
30
0
0
SPLINE
5
219
100
AcDbEntity
8
0
100
AcDbSpline
70
0
71
3
72
11
73
7
74
0
42
0.000000001
43
0.0000000001
44
0.0000000001
40
0
40
0
40
0
40
0
40
1
40
1
40
1
40
2
40
2
40
2
40
2
10
-190.04007975260413
20
18.182948889771136
30
0
10
-190.04007975260413
20
19.059700930128031
30
0
10
-190.75082771224788
20
19.770448889771139
30
0
10
-191.62757975260416
20
19.770448889771139
30
0
10
-192.5043317929607
20
19.770448889771139
30
0
10
-193.21507975260414
20
19.059700930128031
30
0
10
-193.21507975260414
20
18.182948889771136
30
0
0
LINE
5
220
100
AcDbEntity
8
0
100
AcDbLine
10
-190.04007975260413
20
18.182948889771136
30
0
11
-190.04007975260413
21
12.150448889771653
31
0
0
LINE
5
221
100
AcDbEntity
8
0
100
AcDbLine
10
-196.39007975260412
20
13.737948889771651
30
0
11
-193.21507975260414
21
13.737948889771651
31
0
0
LINE
5
222
100
AcDbEntity
8
0
100
AcDbLine
10
-220.20257975260415
20
10.562948889771651
30
0
11
-220.20257975260415
21
2.5619488897715503
31
0
0
LINE
5
223
100
AcDbEntity
8
0
100
AcDbLine
10
-215.44007975260413
20
0.97444888977155109
30
0
11
-215.44007975260413
21
-5.0580511102292194
31
0
0
SPLINE
5
224
100
AcDbEntity
8
0
100
AcDbSpline
70
0
71
3
72
8
73
4
74
0
42
0.000000001
43
0.0000000001
44
0.0000000001
40
0
40
0
40
0
40
0
40
1
40
1
40
1
40
1
10
-215.44007975260413
20
0.97444888977155109
30
0
10
-215.44007975260413
20
1.8512009301271561
30
0
10
-216.15082771224789
20
2.5619488897715508
30
0
10
-217.02757975260414
20
2.5619488897715508
30
0
0
SPLINE
5
225
100
AcDbEntity
8
0
100
AcDbSpline
70
0
71
3
72
11
73
7
74
0
42
0.000000001
43
0.0000000001
44
0.0000000001
40
0
40
0
40
0
40
0
40
1
40
1
40
1
40
2
40
2
40
2
40
2
10
-218.61507975260412
20
-5.0580511102292194
30
0
10
-218.61507975260412
20
-5.9348031505848269
30
0
10
-217.90433179296073
20
-6.6455511102292188
30
0
10
-217.02757975260414
20
-6.6455511102292188
30
0
10
-216.15082771224789
20
-6.6455511102292188
30
0
10
-215.44007975260413
20
-5.9348031505848269
30
0
10
-215.44007975260413
20
-5.0580511102292194
30
0
0
LINE
5
226
100
AcDbEntity
8
0
100
AcDbLine
10
-215.44007975260413
20
18.182948889771136
30
0
11
-215.44007975260413
21
12.150448889771653
31
0
0
LINE
5
227
100
AcDbEntity
8
0
100
AcDbLine
10
-217.02757975260414
20
10.562948889771651
30
0
11
-220.20257975260415
21
10.562948889771651
31
0
0
LINE
5
228
100
AcDbEntity
8
0
100
AcDbLine
10
-220.20257975260415
20
2.5619488897715503
30
0
11
-217.02757975260414
21
2.5619488897715508
31
0
0
LINE
5
229
100
AcDbEntity
8
0
100
AcDbLine
10
-194.80257975260415
20
10.562948889771651
30
0
11
-194.80257975260415
21
2.5619488897715503
31
0
0
LINE
5
230
100
AcDbEntity
8
0
100
AcDbLine
10
-167.81507975260413
20
-0.61305111022844916
30
0
11
-170.99007975260412
21
-0.61305111022844905
31
0
0
LINE
5
231
100
AcDbEntity
8
0
100
AcDbLine
10
-166.22757975260413
20
10.562948889771651
30
0
11
-169.40257975260414
21
10.562948889771651
31
0
0
LINE
5
232
100
AcDbEntity
8
0
100
AcDbLine
10
-164.64007975260415
20
18.182948889771136
30
0
11
-164.64007975260415
21
12.150448889771653
31
0
0
LINE
5
233
100
AcDbEntity
8
0
100
AcDbLine
10
-193.21507975260414
20
-0.61305111022844916
30
0
11
-196.39007975260412
21
-0.61305111022844905
31
0
0
LINE
5
234
100
AcDbEntity
8
0
100
AcDbLine
10
-167.81507975260413
20
13.737948889771651
30
0
11
-167.81507975260413
21
18.182948889771136
31
0
0
SPLINE
5
235
100
AcDbEntity
8
0
100
AcDbSpline
70
0
71
3
72
11
73
7
74
0
42
0.000000001
43
0.0000000001
44
0.0000000001
40
0
40
0
40
0
40
0
40
1
40
1
40
1
40
2
40
2
40
2
40
2
10
292.55992024739589
20
14.499948889771598
30
0
10
292.55992024739589
20
15.376700930127212
30
0
10
291.84917228775214
20
16.087448889771601
30
0
10
290.97242024739592
20
16.087448889771601
30
0
10
290.09566820703969
20
16.087448889771601
30
0
10
289.38492024739594
20
15.376700930127212
30
0
10
289.38492024739594
20
14.499948889771598
30
0
0
LINE
5
236
100
AcDbEntity
8
0
100
AcDbLine
10
-244.01507975260415
20
-0.61305111022844916
30
0
11
-247.19007975260413
21
-0.61305111022844905
31
0
0
SPLINE
5
237
100
AcDbEntity
8
0
100
AcDbSpline
70
0
71
3
72
11
73
7
74
0
42
0.000000001
43
0.0000000001
44
0.0000000001
40
0
40
0
40
0
40
0
40
1
40
1
40
1
40
2
40
2
40
2
40
2
10
-164.64007975260415
20
18.182948889771136
30
0
10
-164.64007975260415
20
19.059700930128031
30
0
10
-165.35082771224791
20
19.770448889771139
30
0
10
-166.22757975260413
20
19.770448889771139
30
0
10
-167.10433179296072
20
19.770448889771139
30
0
10
-167.81507975260413
20
19.059700930128031
30
0
10
-167.81507975260413
20
18.182948889771136
30
0
0
LINE
5
238
100
AcDbEntity
8
0
100
AcDbLine
10
-194.80257975260415
20
2.5619488897715503
30
0
11
-191.62757975260416
21
2.5619488897715508
31
0
0
SPLINE
5
239
100
AcDbEntity
8
0
100
AcDbSpline
70
0
71
3
72
8
73
4
74
0
42
0.000000001
43
0.0000000001
44
0.0000000001
40
0
40
0
40
0
40
0
40
1
40
1
40
1
40
1
10
-166.22757975260413
20
10.562948889771651
30
0
10
-165.35082771224791
20
10.562948889771651
30
0
10
-164.64007975260415
20
11.273696849414762
30
0
10
-164.64007975260415
20
12.150448889771653
30
0
0
SPLINE
5
240
100
AcDbEntity
8
0
100
AcDbSpline
70
0
71
3
72
8
73
4
74
0
42
0.000000001
43
0.0000000001
44
0.0000000001
40
0
40
0
40
0
40
0
40
1
40
1
40
1
40
1
10
-144.80051516554238
20
433.36895248750665
30
0
10
-214.94067839405145
20
433.3689524875067
30
0
10
-271.80051516554255
20
376.50911571601506
30
0
10
-271.80051516554255
20
306.36895248750693
30
0
0
LINE
5
241
100
AcDbEntity
8
0
100
AcDbLine
10
-271.80051516554255
20
306.36895248750693
30
0
11
-271.80051516554261
21
163.49395248750585
31
0
0
SPLINE
5
242
100
AcDbEntity
8
0
100
AcDbSpline
70
0
71
3
72
8
73
4
74
0
42
0.000000001
43
0.0000000001
44
0.0000000001
40
2
40
2
40
2
40
2
40
3
40
3
40
3
40
3
10
-271.80051516554261
20
163.49395248750585
30
0
10
-271.80051516554261
20
93.353789258993885
30
0
10
-214.94067839405159
20
36.493952487505993
30
0
10
-144.80051516554258
20
36.493952487505979
30
0
0
LINE
5
243
100
AcDbEntity
8
0
100
AcDbLine
10
-144.80051516554258
20
36.493952487505979
30
0
11
-51.597548764743983
21
36.493954634345954
31
0
0
SPLINE
5
244
100
AcDbEntity
8
0
100
AcDbSpline
70
0
71
3
72
13
73
9
74
0
42
0.000000001
43
0.0000000001
44
0.0000000001
40
4
40
4
40
4
40
4
40
5
40
5
40
6
40
6
40
6
40
7
40
7
40
7
40
7
10
-51.597548764743983
20
36.493954634345954
30
0
10
-49.405824157878406
20
36.520062570854762
30
0
10
-47.650244975876355
20
38.317971081439033
30
0
10
-47.702460848888002
20
42.701420295170223
30
0
10
-49.500369359475691
20
44.456999477172197
30
0
10
-51.692093966341339
20
44.430891540662714
30
0
10
-51.782284949845696
20
44.429817181019544
30
0
10
-51.872413096544143
20
44.425668491746642
30
0
10
-51.962321365542508
20
44.418447687506024
30
0
0
LINE
5
245
100
AcDbEntity
8
0
100
AcDbLine
10
-51.962321365542508
20
44.418447687506024
30
0
11
-51.962321365542472
21
69.830893687505991
31
0
0
LINE
5
246
100
AcDbEntity
8
0
100
AcDbLine
10
-51.962321365542472
20
69.830893687505991
30
0
11
-40.024321365542477
21
69.830893687505991
31
0
0
LINE
5
247
100
AcDbEntity
8
0
100
AcDbLine
10
-40.024321365542477
20
69.830893687505991
30
0
11
-40.024321365542512
21
44.430893687506021
31
0
0
LINE
5
248
100
AcDbEntity
8
0
100
AcDbLine
10
-40.024321365542512
20
44.430893687506021
30
0
11
-44.786821365542515
21
44.430893687506021
31
0
0
SPLINE
5
249
100
AcDbEntity
8
0
100
AcDbSpline
70
0
71
3
72
10
73
6
74
0
42
0.000000001
43
0.0000000001
44
0.0000000001
40
11
40
11
40
11
40
11
40
12
40
12
40
13
40
13
40
13
40
13
10
-44.786821365542515
20
44.430893687506021
30
0
10
-44.786821365542515
20
38.293629405010996
30
0
10
-39.811585648036889
20
33.31839368750606
30
0
10
-27.537057083047678
20
33.31839368750606
30
0
10
-22.561821365542514
20
38.293629405010996
30
0
10
-22.561821365542514
20
44.430893687506021
30
0
0
LINE
5
250
100
AcDbEntity
8
0
100
AcDbLine
10
-22.561821365542514
20
44.430893687506021
30
0
11
-27.324321365542552
21
44.430893687506021
31
0
0
LINE
5
251
100
AcDbEntity
8
0
100
AcDbLine
10
-27.324321365542552
20
44.430893687506021
30
0
11
-27.324321365542517
21
69.830893687505991
31
0
0
LINE
5
252
100
AcDbEntity
8
0
100
AcDbLine
10
-27.324321365542517
20
69.830893687505991
30
0
11
-14.624321365542521
21
69.830893687505977
31
0
0
LINE
5
253
100
AcDbEntity
8
0
100
AcDbLine
10
-15.895341557564997
20
400.00623512990245
30
0
11
-27.324321365542374
21
400.03185888750625
31
0
0
LINE
5
254
100
AcDbEntity
8
0
100
AcDbLine
10
-27.324321365542374
20
400.03185888750625
30
0
11
-27.324321365542303
21
425.43185888750628
31
0
0
LINE
5
255
100
AcDbEntity
8
0
100
AcDbLine
10
-27.324321365542303
20
425.43185888750628
30
0
11
-22.561821365542265
21
425.43185888750628
31
0
0
SPLINE
5
256
100
AcDbEntity
8
0
100
AcDbSpline
70
0
71
3
72
10
73
6
74
0
42
0.000000001
43
0.0000000001
44
0.0000000001
40
20
40
20
40
20
40
20
40
21
40
21
40
22
40
22
40
22
40
22
10
-22.561821365542265
20
425.43185888750628
30
0
10
-22.561821365542265
20
431.56912317000138
30
0
10
-27.537057083047394
20
436.54435888750641
30
0
10
-39.811585648036605
20
436.54435888750641
30
0
10
-44.786821365542266
20
431.56912317000138
30
0
10
-44.786821365542266
20
425.43185888750628
30
0
0
LINE
5
257
100
AcDbEntity
8
0
100
AcDbLine
10
-44.786821365542266
20
425.43185888750628
30
0
11
-40.024321365542264
21
425.43185888750628
31
0
0
LINE
5
258
100
AcDbEntity
8
0
100
AcDbLine
10
-40.024321365542264
20
425.43185888750628
30
0
11
-40.024321365542335
21
400.0318588875063
31
0
0
LINE
5
259
100
AcDbEntity
8
0
100
AcDbLine
10
-40.024321365542335
20
400.0318588875063
30
0
11
-51.96232136554233
21
400.03185888750636
31
0
0
LINE
5
260
100
AcDbEntity
8
0
100
AcDbLine
10
-51.96232136554233
20
400.03185888750636
30
0
11
-51.962321383784236
21
425.44437607425522
31
0
0
SPLINE
5
261
100
AcDbEntity
8
0
100
AcDbSpline
70
0
71
3
72
13
73
9
74
0
42
0.000000001
43
0.0000000001
44
0.0000000001
40
26
40
26
40
26
40
26
40
27
40
27
40
28
40
28
40
28
40
29
40
29
40
29
40
29
10
-51.962321383784236
20
425.44437607425522
30
0
10
-49.777466558507797
20
425.26902565610783
30
0
10
-47.864142170439052
20
426.89805084398444
30
0
10
-47.513441334143636
20
431.26776049454037
30
0
10
-49.142466522020456
20
433.1810848826093
30
0
10
-51.327321347299986
20
433.35643530075731
30
0
10
-51.446030276919217
20
433.3659625518149
30
0
10
-51.565107878820697
20
433.37014181236469
30
0
10
-51.684191365542276
20
433.36895248750665
30
0
0
LINE
5
262
100
AcDbEntity
8
0
100
AcDbLine
10
-51.684191365542276
20
433.36895248750665
30
0
11
-144.80051516554238
21
433.36895248750665
31
0
0
LINE
5
263
100
AcDbEntity
8
0
100
AcDbLine
10
-41.294321365542501
20
77.471945157065605
30
0
11
-26.054321365542705
21
77.471945157065591
31
0
0
SPLINE
5
264
100
AcDbEntity
8
0
100
AcDbSpline
70
0
71
3
72
10
73
6
74
0
42
0.000000001
43
0.0000000001
44
0.0000000001
40
1
40
1
40
1
40
1
40
2
40
2
40
3
40
3
40
3
40
3
10
-26.054321365542705
20
77.471945157065591
30
0
10
-24.651518100974421
20
77.471945157065591
30
0
10
-23.51432136554255
20
78.722861566038333
30
0
10
-23.51432136554255
20
81.809028748092857
30
0
10
-24.651518100974421
20
83.059945157065641
30
0
10
-26.054321365542705
20
83.059945157065641
30
0
0
LINE
5
265
100
AcDbEntity
8
0
100
AcDbLine
10
-26.054321365542705
20
83.059945157065641
30
0
11
-41.294321365542501
21
83.059945157065641
31
0
0
SPLINE
5
266
100
AcDbEntity
8
0
100
AcDbSpline
70
0
71
3
72
10
73
6
74
0
42
0.000000001
43
0.0000000001
44
0.0000000001
40
4
40
4
40
4
40
4
40
5
40
5
40
6
40
6
40
6
40
6
10
-41.294321365542501
20
83.059945157065641
30
0
10
-42.69712463011345
20
83.059945157065641
30
0
10
-43.834321365542479
20
81.809028748092885
30
0
10
-43.834321365542479
20
78.722861566038347
30
0
10
-42.69712463011345
20
77.471945157065605
30
0
10
-41.294321365542501
20
77.471945157065605
30
0
0
LINE
5
267
100
AcDbEntity
8
0
100
AcDbLine
10
-41.294321365542359
20
386.7973976457526
30
0
11
-26.054321365542563
21
386.79739764575254
31
0
0
SPLINE
5
268
100
AcDbEntity
8
0
100
AcDbSpline
70
0
71
3
72
10
73
6
74
0
42
0.000000001
43
0.0000000001
44
0.0000000001
40
1
40
1
40
1
40
1
40
2
40
2
40
3
40
3
40
3
40
3
10
-26.054321365542563
20
386.79739764575254
30
0
10
-24.651518100974279
20
386.79739764575254
30
0
10
-23.514321365542408
20
388.0483140547272
30
0
10
-23.514321365542408
20
391.13448123678046
30
0
10
-24.651518100974279
20
392.38539764575256
30
0
10
-26.054321365542563
20
392.38539764575256
30
0
0
LINE
5
269
100
AcDbEntity
8
0
100
AcDbLine
10
-26.054321365542563
20
392.38539764575256
30
0
11
-41.294321365542359
21
392.38539764575262
31
0
0
SPLINE
5
270
100
AcDbEntity
8
0
100
AcDbSpline
70
0
71
3
72
10
73
6
74
0
42
0.000000001
43
0.0000000001
44
0.0000000001
40
4
40
4
40
4
40
4
40
5
40
5
40
6
40
6
40
6
40
6
10
-41.294321365542359
20
392.38539764575262
30
0
10
-42.697124630113308
20
392.38539764575262
30
0
10
-43.834321365542337
20
391.13448123678052
30
0
10
-43.834321365542337
20
388.04831405472726
30
0
10
-42.697124630113308
20
386.7973976457526
30
0
10
-41.294321365542359
20
386.7973976457526
30
0
0
ARC
5
271
100
AcDbEntity
8
0
100
AcDbCircle
10
17.226394255975297
20
371.65987511726286
30
0
40
81.189613433164411
210
-0
220
0
230
1
100
AcDbArc
50
-12.8130432578
51
20.453884243403767
0
LWPOLYLINE
5
272
100
AcDbEntity
8
0
100
AcDbPolyline
90
12
70
1
43
0.0
10
78.783788668964959
20
172.9415022085177
42
-0.20863060111923987
10
92.186274449463141
20
156.02909714182738
42
0.16637481206346291
10
92.397720558404984
20
155.65561991602442
42
-2.1813970126936857
10
89.495166863849192
20
155.26502525797642
42
0.17521870955911412
10
89.598103862581425
20
155.7037798156708
42
0.29088598688929257
10
79.212030956594191
20
169.31332037046917
42
0.25130434075675118
10
78.556618529191383
20
169.22120816092732
42
0.29088598688787382
10
72.32418224589145
20
153.27608845321186
42
0.17521870963453676
10
72.544068786090065
20
152.88270378494326
42
-2.1813970125976403
10
69.646292620178372
20
152.45811524303343
42
0.16637481206008209
10
69.746603390533636
20
152.87540704086422
42
-0.20863060111738457
10
77.968208988398914
20
172.82687995948754
42
-0.32525924839184589
0
LINE
5
273
100
AcDbEntity
8
0
100
AcDbLine
10
3.6298751892754133
20
283.10996460546312
30
0
11
88.267910733701939
21
341.64002549576458
31
0
0
LWPOLYLINE
5
274
100
AcDbEntity
8
0
100
AcDbPolyline
90
12
70
1
43
0.0
10
69.646292620171096
20
309.45946522768855
42
-2.1813970126295033
10
72.544068786063221
20
309.03487668574888
42
0.17521870961789759
10
72.324182245891365
20
308.64149201751474
42
0.29088598688787287
10
78.55661852919124
20
292.6963723097993
42
0.25130434075153896
10
79.212030956585721
20
292.60426010024037
42
0.29088598688844131
10
89.598103862655591
20
306.21380065498533
42
0.17521870962028854
10
89.495166863756225
20
306.6525552128042
42
-2.1813970126001427
10
92.397720558459184
20
306.26196055468574
42
0.16637481207399021
10
92.186274449516276
20
305.88848332889154
42
-0.20863060111929965
10
78.783788668989928
20
288.97607826216182
42
-0.32525924839418435
10
77.968208988387417
20
289.09070051123587
42
-0.2086306011173262
10
69.746603390533494
20
309.04217342986237
42
0.16637481206008467
0
LWPOLYLINE
5
275
100
AcDbEntity
8
0
100
AcDbPolyline
90
4
70
1
43
0.0
10
26.824464218484252
20
89.910763147224287
10
14.19352601297545
20
107.9482464753636
42
-0.99999999999999989
10
17.227664234975517
20
110.07285336956366
10
29.902665777889709
20
91.971075180339383
42
-0.95635641060840115
0
ARC
5
276
100
AcDbEntity
8
0
100
AcDbCircle
10
3.0728289216755122
20
177.93029891556344
30
0
40
1.0392235439991533
210
0
220
-0
230
1
100
AcDbArc
50
57.586779582998737
51
116.53423774444751
0
LINE
5
277
100
AcDbEntity
8
0
100
AcDbLine
10
83.078891083375126
20
337.56382221036296
30
0
11
3.1962317976754484
21
282.08284529506307
31
0
0
LINE
5
278
100
AcDbEntity
8
0
100
AcDbLine
10
88.267910733702138
20
120.27755497496202
30
0
11
3.6298751892923242
21
178.80761586520953
31
0
0
LINE
5
279
100
AcDbEntity
8
0
100
AcDbLine
10
3.196231797675555
20
179.83473517566341
30
0
11
83.078891083375325
21
124.35375826036366
31
0
0
ARC
5
280
100
AcDbEntity
8
0
100
AcDbCircle
10
3.0728289216754057
20
283.98728155516312
30
0
40
1.0392235439991679
210
0
220
0
230
1
100
AcDbArc
50
243.46576225370168
51
302.4132204146257
0
SPLINE
5
281
100
AcDbEntity
8
0
100
AcDbSpline
70
0
71
3
72
9
73
5
74
0
42
0.000000001
43
0.0000000001
44
0.0000000001
40
0
40
0
40
0
40
0
40
0.4737095538324621
40
1
40
1
40
1
40
1
10
3.1962317977060373
20
282.08284529506938
30
0
10
3.1398646097659189
20
282.03059472584368
30
0
10
3.194332733141767
20
281.90752380935595
30
0
10
3.1637206148558228
20
281.7651645247725
30
0
10
3.1419226524661248
20
281.70937905091466
30
0
0
ARC
5
282
100
AcDbEntity
8
0
100
AcDbCircle
10
76.89231863957518
20
358.08982502366291
30
0
40
20.000000000000075
210
-0
220
0
230
1
100
AcDbArc
50
304.6651676520998
51
347.18695674226848
0
ARC
5
283
100
AcDbEntity
8
0
100
AcDbCircle
10
2.1234860700755398
20
179.8315401308634
30
0
40
1.0858576329076743
210
0
220
-0
230
1
100
AcDbArc
50
20.296543635542665
51
296.53423774629897
0
LWPOLYLINE
5
284
100
AcDbEntity
8
0
100
AcDbPolyline
90
4
70
1
43
0.0
10
17.227664234969335
20
351.84472710116864
42
-0.99999999999999989
10
14.193526012981277
20
353.96933399535715
10
26.824464218484088
20
372.00681732350228
42
-0.95635641060839793
10
29.902665777889528
20
369.94650529038717
0
ARC
5
285
100
AcDbEntity
8
0
100
AcDbCircle
10
17.226394255975475
20
90.257705353463678
30
0
40
81.189613433142995
210
-0
220
0
230
1
100
AcDbArc
50
-14.57185117118669
51
12.813043257800064
0
ARC
5
286
100
AcDbEntity
8
0
100
AcDbCircle
10
-64.904443549324299
20
230.98045288556318
30
0
40
188.39089523441314
210
-0
220
0
230
1
100
AcDbArc
50
326.1109694834239
51
359.99341168572408
0
ARC
5
287
100
AcDbEntity
8
0
100
AcDbCircle
10
76.892318639575393
20
103.82775544706371
30
0
40
20.000000000064581
210
0
220
-0
230
1
100
AcDbArc
50
12.813043257731684
51
55.334832347900175
0
ARC
5
288
100
AcDbEntity
8
0
100
AcDbCircle
10
-64.904443549324299
20
230.93712758516318
30
0
40
188.39089523441274
210
0
220
-0
230
1
100
AcDbArc
50
0.0065883143312663308
51
33.889030516576163
0
ARC
5
289
100
AcDbEntity
8
0
100
AcDbCircle
10
2.1234860700754332
20
282.08604033986308
30
0
40
1.0858576329537104
210
0
220
-0
230
1
100
AcDbArc
50
63.46576225547436
51
339.70345636620067
0
SPLINE
5
290
100
AcDbEntity
8
0
100
AcDbSpline
70
0
71
3
72
9
73
5
74
0
42
0.000000001
43
0.0000000001
44
0.0000000001
40
0
40
0
40
0
40
0
40
0.52629044616753795
40
1
40
1
40
1
40
1
10
3.1419226524662314
20
180.20820141981176
30
0
10
3.1637206148559294
20
180.15241594595395
30
0
10
3.1943327331418736
20
180.01005666137041
30
0
10
3.1398646097660965
20
179.88698574488271
30
0
10
3.1962317977061439
20
179.83473517565704
30
0
0
ARC
5
291
100
AcDbEntity
8
0
100
AcDbCircle
10
86.501618645275116
20
332.63570819986296
30
0
40
6.0001143042369893
210
0
220
-0
230
1
100
AcDbArc
50
33.889030516599725
51
124.78117393581289
0
ARC
5
292
100
AcDbEntity
8
0
100
AcDbCircle
10
86.5016186452753
20
129.28187227086363
30
0
40
6.00011430420086
210
0
220
0
230
1
100
AcDbArc
50
235.21882606418706
51
326.11096948340031
0
LINE
5
293
100
AcDbEntity
8
0
100
AcDbLine
10
-14.624321365542521
20
69.830893687505977
30
0
11
95.804372688782536
21
69.830893687505977
31
0
0
LINE
5
294
100
AcDbEntity
8
0
100
AcDbLine
10
-15.895341557564997
20
400.00623512990245
30
0
11
93.297307661610986
21
400.03185888750613
31
0
0
ENDSEC
0
SECTION
2
OBJECTS
0
DICTIONARY
5
C
100
AcDbDictionary
3
ACAD_GROUP
350
D
3
ACAD_MLINESTYLE
350
17
0
DICTIONARY
5
D
100
AcDbDictionary
0
DICTIONARY
5
1A
330
C
100
AcDbDictionary
0
DICTIONARY
5
17
100
AcDbDictionary
0
ENDSEC
0
EOF
